<svg width="1600" height="730" viewBox="0 0 1600 730" fill="none" xmlns="http://www.w3.org/2000/svg">
<g opacity="0.7">
<path d="M985.728 724.295C964.664 690.649 945.436 685.729 931.691 692.429C926.136 696.345 911.103 702.906 895.414 697.824C875.804 691.472 874.147 665.495 875.188 659.122C877.516 644.872 908.522 635.626 915.264 648.527C922.006 661.428 896.785 627.364 913.176 607.127C929.567 586.889 962.326 618.196 968.208 631.383C972.897 641.895 977.533 700.051 985.728 724.295Z" stroke="#2435CD"/>
<path d="M1054.8 -22.9349C1029.22 7.4184 1009.49 9.58856 996.826 1.02435C991.876 -3.63326 977.913 -12.2416 961.667 -9.41396C941.359 -5.87944 936.068 19.607 936.204 26.0626C936.507 40.4988 965.906 54.0083 974.394 42.1826C982.881 30.3569 953.126 60.5402 966.511 82.8794C979.897 105.219 1016.73 78.824 1024.4 66.5942C1030.52 56.8458 1043.28 -0.0827981 1054.8 -22.9349Z" stroke="#2435CD"/>
<path d="M1260.61 400.109C1298.08 379.48 1304.54 359.095 1298.17 343.908C1294.3 337.696 1288.15 321.131 1294.57 304.563C1302.6 283.854 1330.64 283.636 1337.43 285.14C1352.61 288.503 1360.67 322.409 1346.38 328.884C1332.1 335.358 1370.27 310.284 1391.03 329.133C1411.8 347.983 1376.14 381.331 1361.6 386.863C1350.01 391.273 1287.18 392.756 1260.61 400.109Z" stroke="#2435CD"/>
<path d="M108.019 566.29C144.112 549.766 151.483 531.337 146.622 516.841C143.459 510.824 138.902 495.067 145.975 480.17C154.816 461.549 180.788 463.273 186.972 465.132C200.801 469.287 205.948 501.23 192.282 506.243C178.616 511.256 215.663 490.664 233.604 509.54C251.545 528.417 216.256 556.84 202.418 560.963C191.387 564.249 133.12 561.307 108.019 566.29Z" stroke="#2435CD"/>
<path d="M455.743 725.705C416.073 727.13 402.2 741.325 401.133 756.578C401.748 763.347 399.916 779.647 387.673 790.694C372.368 804.504 349.041 792.954 344.042 788.867C332.863 779.728 340.355 748.252 354.898 748.861C369.442 749.47 327.332 754.287 317.997 729.975C308.663 705.662 352.153 692.939 366.515 694.436C377.962 695.63 430.65 720.684 455.743 725.705Z" stroke="#2435CD"/>
<path d="M101.313 307.603C99.9619 267.93 85.7935 254.031 70.5426 252.935C63.7722 253.537 47.4754 251.675 36.4509 239.411C22.6703 224.081 34.2632 200.775 38.3595 195.784C47.5198 184.622 78.9816 192.172 78.3452 206.714C77.7089 221.257 72.9711 179.138 97.3006 169.849C121.63 160.56 134.272 204.073 132.748 218.432C131.534 229.877 106.381 282.518 101.313 307.603Z" stroke="#2435CD"/>
<path d="M-43.005 44.703C-8.56033 24.9719 -2.89134 5.95084 -9.04813 -8.04501C-12.7437 -13.7497 -18.7117 -29.0283 -13.0197 -44.5055C-5.90468 -63.852 20.1171 -64.4914 26.4441 -63.2018C40.5926 -60.318 48.6174 -28.974 35.4626 -22.742C22.3078 -16.5099 57.333 -40.378 76.9132 -23.2075C96.4933 -6.03699 63.9282 25.4711 50.5212 30.8327C39.8345 35.1064 -18.4591 37.4632 -43.005 44.703Z" stroke="#2435CD"/>
<path d="M995.339 157.866C1019.97 187.171 1038.19 188.549 1049.52 179.485C1053.9 174.633 1066.42 165.473 1081.46 167.647C1100.26 170.366 1106.06 195.62 1106.18 202.076C1106.43 216.513 1079.9 231.189 1071.66 219.712C1063.42 208.236 1091.89 237.204 1080.41 260.061C1068.92 282.918 1034.09 258.019 1026.58 246.106C1020.6 236.611 1006.77 180.239 995.339 157.866Z" stroke="#2435CD"/>
<path d="M615.732 509.856C592.479 477.684 572.966 474.052 559.697 481.65C554.414 485.927 539.85 493.473 523.859 489.445C503.87 484.409 500.49 458.6 501.105 452.172C502.481 437.799 532.804 426.513 540.389 438.938C547.973 451.362 520.545 419.049 535.555 397.767C550.565 376.486 585.331 405.547 592.077 418.314C597.454 428.49 605.944 486.21 615.732 509.856Z" stroke="#2435CD"/>
<path d="M1531.01 785.185C1554.88 753.463 1552.58 733.748 1541.4 723.318C1535.75 719.534 1524.24 707.851 1523.36 691.383C1522.27 670.799 1545.92 659.943 1552.25 658.631C1566.38 655.698 1586.13 681.331 1576.5 692.249C1566.87 703.166 1589.64 667.413 1614.4 675.464C1639.17 683.514 1621.68 725.316 1611.48 735.533C1603.34 743.677 1550.71 768.846 1531.01 785.185Z" stroke="#2435CD"/>
<path d="M631.305 88.4828C597.992 66.8961 593.373 47.5933 600.286 33.9554C604.288 28.4616 611.084 13.5325 606.247 -2.23306C600.202 -21.94 574.254 -24.0026 567.866 -23.0612C553.581 -20.9561 543.852 9.90183 556.646 16.8444C569.44 23.7871 535.774 -1.96213 515.284 14.111C494.793 30.1842 525.585 63.4273 538.678 69.5146C549.115 74.3668 607.192 79.9105 631.305 88.4828Z" stroke="#2435CD"/>
<path d="M762.079 297.115C739.582 265.509 742.389 246.315 753.641 236.422C759.282 232.875 770.895 221.767 772.219 205.708C773.874 185.634 750.991 174.411 744.831 172.964C731.056 169.728 710.984 194.245 720.114 205.159C729.243 216.074 707.938 180.561 683.436 187.773C658.934 194.986 674.899 236.269 684.611 246.514C692.354 254.681 743.233 280.642 762.079 297.115Z" stroke="#2435CD"/>
<path d="M1633.1 145.275C1608.72 113.941 1589.1 110.998 1576.1 119.058C1570.97 123.518 1556.68 131.572 1540.56 128.108C1520.41 123.779 1516.12 98.1047 1516.51 91.6593C1517.38 77.2462 1547.29 64.9013 1555.3 77.0512C1563.32 89.201 1534.77 57.8727 1549.03 36.0763C1563.28 14.2799 1599.04 42.1002 1606.23 54.6219C1611.97 64.603 1622.48 121.989 1633.1 145.275Z" stroke="#2435CD"/>
</g>
</svg>
