<svg width="1597" height="825" viewBox="0 0 1597 825" fill="none" xmlns="http://www.w3.org/2000/svg">
<path opacity="0.7" d="M955 824C993.4 700.8 1063.33 666 1093.5 664C1105.33 659 1134.6 658.3 1157 695.5C1185 742 1190 796 1233.5 791.5C1277 787 1338 727 1338 695.5C1338 664 1301 580.5 1312.5 559.5C1324 538.5 1348 469 1377.5 486C1407 503 1436.5 534 1456.5 525.5C1476.5 517 1604 596.5 1578.5 415.5C1558.1 270.7 1582 236.167 1596.5 237" stroke="#2435CD" stroke-width="2"/>
<path opacity="0.7" d="M0.5 259.5C100.9 213.1 154.333 337.5 168.5 405.5C176.167 458.333 197.4 568.2 221 585C250.5 606 307.5 610.5 327 585C346.5 559.5 352.5 433.5 327 419.5C301.5 405.5 308 307.5 345 295C382 282.5 441 278 468 295C495 312 637.5 299 623.5 259.5C609.5 220 565.5 166 609.5 145C644.7 128.2 684.5 42 700 1" stroke="#2435CD" stroke-width="2"/>
</svg>
