<svg width="1738" height="886" viewBox="0 0 1738 886" fill="none" xmlns="http://www.w3.org/2000/svg">
<g opacity="0.8">
<path d="M1054.73 801.295C1033.66 767.649 1014.44 762.729 1000.69 769.429C995.136 773.345 980.103 779.906 964.414 774.824C944.804 768.472 943.147 742.495 944.188 736.122C946.516 721.872 977.522 712.626 984.264 725.527C991.006 738.428 965.785 704.364 982.176 684.127C998.567 663.889 1031.33 695.196 1037.21 708.383C1041.9 718.895 1046.53 777.051 1054.73 801.295Z" stroke="#2435CD"/>
<path d="M1123.8 54.0651C1098.22 84.4184 1078.49 86.5886 1065.83 78.0244C1060.88 73.3667 1046.91 64.7584 1030.67 67.586C1010.36 71.1206 1005.07 96.607 1005.2 103.063C1005.51 117.499 1034.91 131.008 1043.39 119.183C1051.88 107.357 1022.13 137.54 1035.51 159.879C1048.9 182.219 1085.73 155.824 1093.4 143.594C1099.52 133.846 1112.28 76.9172 1123.8 54.0651Z" stroke="#2435CD"/>
<path d="M1329.61 477.109C1367.08 456.48 1373.54 436.095 1367.17 420.908C1363.3 414.696 1357.15 398.131 1363.57 381.563C1371.6 360.854 1399.64 360.636 1406.43 362.14C1421.61 365.503 1429.67 399.409 1415.38 405.884C1401.1 412.358 1439.27 387.284 1460.03 406.133C1480.8 424.983 1445.14 458.331 1430.6 463.863C1419.01 468.273 1356.18 469.756 1329.61 477.109Z" stroke="#2435CD"/>
<path d="M177.019 643.29C213.112 626.766 220.483 608.337 215.622 593.841C212.459 587.824 207.902 572.067 214.975 557.17C223.816 538.549 249.788 540.273 255.972 542.132C269.801 546.287 274.948 578.23 261.282 583.243C247.616 588.256 284.663 567.664 302.604 586.54C320.545 605.417 285.256 633.84 271.418 637.963C260.387 641.249 202.12 638.307 177.019 643.29Z" stroke="#2435CD"/>
<path d="M524.744 802.705C485.073 804.13 471.201 818.325 470.133 833.578C470.748 840.347 468.916 856.647 456.673 867.694C441.368 881.504 418.041 869.954 413.042 865.867C401.864 856.728 409.355 825.252 423.898 825.861C438.442 826.47 396.332 831.287 386.998 806.975C377.663 782.662 421.153 769.939 435.515 771.436C446.962 772.63 499.65 797.684 524.744 802.705Z" stroke="#2435CD"/>
<path d="M170.313 384.603C168.962 344.93 154.793 331.03 139.543 329.935C132.772 330.537 116.475 328.675 105.451 316.411C91.6703 301.081 103.263 277.775 107.36 272.784C116.52 261.622 147.982 269.172 147.345 283.714C146.709 298.257 141.971 256.138 166.301 246.849C190.63 237.56 203.272 281.073 201.748 295.432C200.534 306.877 175.381 359.518 170.313 384.603Z" stroke="#2435CD"/>
<path d="M25.995 121.703C60.4397 101.972 66.1087 82.9508 59.9519 68.955C56.2563 63.2503 50.2883 47.9717 55.9803 32.4945C63.0953 13.148 89.1171 12.5086 95.4441 13.7982C109.593 16.682 117.617 48.026 104.463 54.258C91.3078 60.4901 126.333 36.622 145.913 53.7925C165.493 70.963 132.928 102.471 119.521 107.833C108.834 112.106 50.5409 114.463 25.995 121.703Z" stroke="#2435CD"/>
<path d="M1064.34 234.866C1088.97 264.171 1107.19 265.549 1118.52 256.485C1122.9 251.633 1135.42 242.472 1150.46 244.647C1169.26 247.366 1175.06 272.62 1175.18 279.076C1175.43 293.513 1148.9 308.189 1140.66 296.712C1132.42 285.236 1160.89 314.204 1149.41 337.061C1137.92 359.918 1103.09 335.019 1095.58 323.106C1089.6 313.611 1075.77 257.238 1064.34 234.866Z" stroke="#2435CD"/>
<path d="M684.732 586.856C661.479 554.684 641.966 551.052 628.697 558.65C623.414 562.927 608.85 570.473 592.859 566.445C572.87 561.409 569.49 535.6 570.105 529.172C571.481 514.799 601.804 503.513 609.389 515.938C616.973 528.362 589.545 496.049 604.555 474.767C619.565 453.486 654.331 482.547 661.077 495.314C666.454 505.49 674.944 563.21 684.732 586.856Z" stroke="#2435CD"/>
<path d="M1600.01 862.185C1623.88 830.463 1621.58 810.748 1610.4 800.318C1604.75 796.534 1593.24 784.851 1592.36 768.383C1591.27 747.799 1614.92 736.943 1621.25 735.631C1635.38 732.698 1655.13 758.331 1645.5 769.249C1635.87 780.166 1658.64 744.413 1683.4 752.464C1708.17 760.514 1690.68 802.316 1680.48 812.533C1672.34 820.677 1619.71 845.846 1600.01 862.185Z" stroke="#2435CD"/>
<path d="M700.305 165.483C666.992 143.896 662.372 124.593 669.286 110.955C673.288 105.462 680.084 90.5325 675.247 74.7669C669.202 55.06 643.254 52.9974 636.866 53.9388C622.581 56.0439 612.852 86.9018 625.646 93.8444C638.44 100.787 604.774 75.0379 584.283 91.111C563.793 107.184 594.585 140.427 607.678 146.515C618.115 151.367 676.192 156.91 700.305 165.483Z" stroke="#2435CD"/>
<path d="M831.079 374.115C808.583 342.509 811.389 323.315 822.641 313.422C828.282 309.875 839.895 298.767 841.219 282.708C842.874 262.634 819.991 251.411 813.831 249.964C800.057 246.728 779.984 271.245 789.114 282.159C798.243 293.074 776.938 257.561 752.436 264.773C727.934 271.986 743.899 313.269 753.612 323.514C761.354 331.681 812.233 357.642 831.079 374.115Z" stroke="#2435CD"/>
<path d="M1702.1 222.275C1677.72 190.941 1658.1 187.998 1645.1 196.058C1639.97 200.518 1625.68 208.572 1609.56 205.108C1589.41 200.779 1585.12 175.105 1585.51 168.659C1586.38 154.246 1616.29 141.901 1624.3 154.051C1632.32 166.201 1603.77 134.873 1618.03 113.076C1632.28 91.2799 1668.04 119.1 1675.23 131.622C1680.97 141.603 1691.48 198.989 1702.1 222.275Z" stroke="#2435CD"/>
</g>
</svg>
