<svg width="166" height="39" viewBox="0 0 166 39" fill="none" xmlns="http://www.w3.org/2000/svg">
<path d="M2.51136 10.0909H4.50568L11.3658 26.5625H11.532L18.392 10.0909H20.3864V29H18.7614V13.7379H18.6136L12.2337 29H10.6641L4.28409 13.7379H4.13636V29H2.51136V10.0909Z" fill="#190B03"/>
<path d="M60.2379 10.0909V29H58.5575L47.3857 13.1655H47.2379V29H45.5114V10.0909H47.1825L58.3913 25.9439H58.5391V10.0909H60.2379ZM72.6055 29H70.7958L77.6744 10.0909H79.521L86.3995 29H84.5898L78.6623 12.3345H78.533L72.6055 29ZM73.9073 21.7521H83.288V23.3033H73.9073V21.7521ZM89.6403 10.0909H91.6346L98.4947 26.5625H98.6609L105.521 10.0909H107.515V29H105.89V13.7379H105.743L99.3626 29H97.793L91.413 13.7379H91.2653V29H89.6403V10.0909ZM128.045 19.5455C128.045 21.5152 127.694 23.2294 126.992 24.6882C126.29 26.1409 125.324 27.2673 124.093 28.0675C122.868 28.8615 121.459 29.2585 119.864 29.2585C118.27 29.2585 116.857 28.8615 115.626 28.0675C114.402 27.2673 113.438 26.1409 112.737 24.6882C112.041 23.2294 111.693 21.5152 111.693 19.5455C111.693 17.5758 112.041 15.8646 112.737 14.4119C113.438 12.9531 114.405 11.8267 115.636 11.0327C116.867 10.2325 118.276 9.83239 119.864 9.83239C121.459 9.83239 122.868 10.2325 124.093 11.0327C125.324 11.8267 126.29 12.9531 126.992 14.4119C127.694 15.8646 128.045 17.5758 128.045 19.5455ZM126.364 19.5455C126.364 17.8527 126.081 16.4032 125.515 15.1967C124.949 13.9841 124.176 13.0578 123.197 12.4176C122.219 11.7775 121.108 11.4574 119.864 11.4574C118.627 11.4574 117.519 11.7775 116.54 12.4176C115.562 13.0578 114.786 13.9811 114.214 15.1875C113.647 16.3939 113.364 17.8466 113.364 19.5455C113.364 21.2382 113.647 22.6877 114.214 23.8942C114.78 25.1006 115.553 26.027 116.531 26.6733C117.51 27.3134 118.621 27.6335 119.864 27.6335C121.108 27.6335 122.219 27.3134 123.197 26.6733C124.182 26.0331 124.958 25.1098 125.524 23.9034C126.09 22.6908 126.371 21.2382 126.364 19.5455ZM144.823 10.0909H146.55V22.6108C146.55 23.8973 146.248 25.0483 145.645 26.0639C145.042 27.0734 144.202 27.8705 143.124 28.4553C142.053 29.0339 140.807 29.3232 139.385 29.3232C137.969 29.3232 136.723 29.0308 135.646 28.446C134.569 27.8613 133.728 27.0642 133.125 26.0547C132.522 25.0452 132.22 23.8973 132.22 22.6108V10.0909H133.947V22.4908C133.947 23.4941 134.172 24.3897 134.621 25.1776C135.07 25.9593 135.701 26.5748 136.514 27.0241C137.332 27.4735 138.289 27.6982 139.385 27.6982C140.481 27.6982 141.438 27.4735 142.257 27.0241C143.075 26.5748 143.706 25.9593 144.149 25.1776C144.599 24.3897 144.823 23.4941 144.823 22.4908V10.0909ZM151.568 29V10.0909H157.671C159.013 10.0909 160.133 10.334 161.032 10.8203C161.937 11.3004 162.617 11.9683 163.072 12.8239C163.534 13.6733 163.765 14.6489 163.765 15.7507C163.765 16.8525 163.534 17.825 163.072 18.6683C162.617 19.5116 161.94 20.1702 161.041 20.6442C160.142 21.1181 159.028 21.3551 157.699 21.3551H152.501V19.7763H157.653C158.637 19.7763 159.456 19.6132 160.108 19.2869C160.767 18.9607 161.256 18.496 161.577 17.8928C161.903 17.2895 162.066 16.5755 162.066 15.7507C162.066 14.9259 161.903 14.2057 161.577 13.5902C161.25 12.9685 160.758 12.4884 160.099 12.1499C159.447 11.8113 158.622 11.642 157.625 11.642H153.295V29H151.568ZM159.905 20.4688L164.559 29H162.564L157.957 20.4688H159.905Z" fill="#190B03"/>
<path d="M30.5 28.5C32.5 23.5 31.5 21 29.666 20.0307C28.7923 19.7355 26.8702 18.6139 26.1713 16.4888C25.2976 13.8323 28.0108 11.5719 28.7922 11.1759C30.5397 10.2904 34.0342 12.9468 33.1605 14.7178C32.2869 16.4888 34 11 37.5289 11.1759C41.0578 11.3517 40.2501 17.4455 39.2762 19.1452C38.5 20.5 32.5 25.6621 30.5 28.5Z" stroke="#190B03"/>
</svg>
