<svg width="81" height="72" viewBox="0 0 81 72" fill="none" xmlns="http://www.w3.org/2000/svg">
<path d="M39.5939 47.9864C39.2723 47.4237 37.919 46.1441 37.2826 45.5746L35.6747 42.6604C36.0097 42.8949 36.8806 43.4844 37.6845 43.9668C38.4885 44.4491 42.7761 45.2397 44.8195 45.5746C44.9534 45.8761 45.2415 46.5193 45.3219 46.68C45.4224 46.881 45.3219 47.7855 45.8244 48.4889C46.3268 49.1923 45.8244 48.7904 46.1258 49.5943C46.4273 50.3982 46.7288 53.5135 46.6283 53.9155C46.5531 54.2164 46.0025 54.4235 45.6851 54.5037C45.6598 54.5142 45.6388 54.5184 45.6234 54.5184C45.6427 54.5141 45.6634 54.5092 45.6851 54.5037C45.7697 54.4687 45.9015 54.3641 46.0254 54.1164C46.1861 53.7949 46.0254 53.3795 45.9249 53.212C45.7909 53.48 45.3219 54.2169 44.518 55.0209C43.5131 56.0258 40.3978 64.2661 40.5988 64.4671C40.7998 64.6681 42.2067 64.7686 42.7091 65.472C43.1111 66.0348 42.8766 66.9794 42.7091 67.3814C42.6086 67.0464 42.2469 66.2559 41.6037 65.7735C40.9606 65.2911 40.5988 65.5725 40.4983 65.7735L39.3929 65.472C38.9909 65.5725 38.1468 65.7735 37.986 65.7735C37.785 65.7735 37.1821 65.5725 36.3781 65.472C35.735 65.3916 35.0382 65.6395 34.7703 65.7735C34.9043 65.606 35.2124 65.2509 35.3732 65.1706C35.5742 65.0701 36.2776 65.0701 36.5791 65.0701C36.8806 65.0701 37.986 65.0701 38.4885 64.7686C38.9909 64.4671 41.9052 55.8248 42.0057 54.9204C42.1062 54.016 41.7042 53.7145 41.4027 53.011C41.1013 52.3076 41.5032 51.3027 41.5032 50.4987C41.5032 49.8556 40.6323 48.6229 40.1968 48.0869C40.1968 48.1874 40.2169 48.4487 40.2973 48.6899C40.3777 48.9311 40.1298 49.5273 39.9958 49.7953V49.2928C39.9958 49.0919 39.9154 48.5492 39.5939 47.9864Z" fill="#172391"/>
<path d="M25.1425 35.5255C24.2581 34.8823 24.1041 33.3146 24.1376 32.6112C27.2863 34.2526 33.7245 37.6358 34.2872 38.0378C34.9907 38.5402 37.2015 44.1678 37.302 44.7707C37.4025 45.3737 37.4025 46.0771 37.6035 46.6801C37.8045 47.283 38.4074 50.0968 38.3069 51.0012C38.2064 51.9056 37.4025 53.0111 35.1917 53.9155C32.9808 54.8199 29.5641 61.2514 29.7651 61.6534C29.9661 62.0553 30.1671 61.9548 30.4685 62.0553C30.77 62.1558 31.172 62.2563 31.7749 62.6583C32.3779 63.0602 34.2872 63.7637 34.0863 63.7637C33.8853 63.7637 30.4685 63.3617 30.8705 63.5627C31.1921 63.7235 31.5405 64.8356 31.6744 65.3716C31.6075 65.2376 31.4132 64.8691 31.172 64.4671C30.9308 64.0652 30.1336 63.7637 29.7651 63.6632C29.3631 63.6297 28.4386 63.5828 27.9562 63.6632C27.4739 63.7436 27.4203 64.6346 27.4538 65.0701C27.3868 65.0031 27.2126 64.7887 27.0518 64.4671C26.891 64.1456 27.0518 63.6632 27.1523 63.4622H26.2479C25.6449 63.4622 23.9366 64.1657 22.9317 64.8691C22.1277 65.4319 22.4627 66.5105 22.7307 66.9794C22.6972 66.9459 22.59 66.7985 22.4292 66.477C22.2282 66.075 22.3287 65.2711 22.5297 64.6681C22.6828 64.2088 23.8807 63.5916 24.5443 63.3023C24.3451 63.3786 23.9339 63.496 23.3336 63.5627C22.4292 63.6632 21.7258 64.7686 21.8262 65.7735C21.8772 66.2834 22.1195 66.6855 22.3583 66.9541C22.5053 67.0925 22.6355 67.2048 22.7307 67.2809C22.6326 67.2196 22.4961 67.1091 22.3583 66.9541C21.9878 66.6052 21.5111 66.0906 21.2233 65.5725C20.7208 64.6681 21.9267 63.5627 22.4292 63.1607C22.8312 62.8392 24.6735 62.3568 25.5445 62.1558C26.4154 61.2849 28.6195 59.0607 30.4686 57.1312C32.7799 54.7194 32.9809 53.0111 32.9809 52.3076C32.9809 51.6042 33.1818 50.2978 32.9809 49.6948C32.7799 49.0919 31.9759 47.9865 31.373 47.1825C30.77 46.3786 29.1622 41.957 28.8607 41.2535C28.5592 40.5501 26.2479 36.3294 25.1425 35.5255Z" fill="#172391"/>
<path d="M23.1131 0.152934C18.993 -0.651001 14.7723 1.96179 14.1694 2.26326C13.7674 2.48092 12.729 2.68851 12.26 2.7651L12.662 7.78969C13.7339 8.12466 16.139 9.09608 17.1841 10.302C18.4905 11.8094 17.5861 14.8241 17.1841 18.1404C16.7821 21.4566 19.6964 28.5915 21.8067 32.6112C23.9171 36.6309 40.3977 46.7805 49.442 48.4889C56.6774 49.8556 60.2951 47.9194 61.1996 46.7805C59.4912 42.0574 55.5921 31.9077 53.6627 29.094C51.2509 25.5768 38.3879 14.5226 33.6648 8.79461L33.5391 8.6422C28.911 3.02904 27.1966 0.949699 23.1131 0.152934Z" fill="url(#paint0_linear_12350_337)"/>
<path d="M47.1308 22.562C42.1464 17.5776 34.8038 16.3315 31.7555 16.3315C29.2432 16.9344 27.4344 18.0398 28.2383 24.6723C29.0422 31.3048 42.3072 37.4348 46.4273 39.1431C50.5475 40.8515 65.2193 48.4889 67.8321 49.9963C70.4449 51.5036 80.2931 58.1361 79.9916 57.8346C79.6901 57.5332 78.0823 56.6287 76.0724 54.5184C74.0626 52.4081 63.6114 42.6604 60.8982 39.6456C58.1849 36.6308 53.3613 28.7925 47.1308 22.562Z" fill="url(#paint1_linear_12350_337)"/>
<path d="M59.5917 59.744C56.8584 55.6439 50.4135 39.0762 47.5327 31.3048L49.3416 32.2092C49.4756 32.7117 50.0249 34.3799 51.1504 37.0328C52.5573 40.3491 59.4913 55.3224 60.8981 57.9352C62.0236 60.0254 66.0567 66.6445 67.9326 69.6927C68.1336 69.9607 68.1537 70.2555 66.6262 69.2907C64.7168 68.0848 63.0085 64.8691 59.5917 59.744Z" fill="url(#paint2_linear_12350_337)"/>
<path d="M61.8025 59.945C58.3456 54.3978 52.0548 39.4112 49.3416 32.6112L51.2509 33.1137C51.3849 33.4821 52.1151 35.1436 53.9642 38.8417C56.2755 43.4643 66.8271 62.6583 68.3345 65.5725C69.5404 67.904 71.0478 70.5636 71.9522 71.5016C71.8517 71.5351 71.3694 71.4413 70.2439 70.7981C68.837 69.9942 66.1237 66.8789 61.8025 59.945Z" fill="url(#paint3_linear_12350_337)"/>
<path d="M73.7611 68.5873C74.565 70.3559 74.2301 71.3341 73.9621 71.602C73.4596 71.3341 72.0326 70.4564 70.3444 69.0897C68.234 67.3814 65.0183 59.4425 61.5011 53.815C58.6873 49.3129 53.6292 38.2722 51.4519 33.3146L53.9642 34.7215C54.5337 36.0614 57.2804 40.1481 60.8981 46.5796C65.4203 54.6189 72.7562 66.3765 73.7611 68.5873Z" fill="url(#paint4_linear_12350_337)"/>
<path d="M73.6606 67.6829C75.4292 68.8888 77.6803 70.5971 78.5847 71.3006C78.6852 71.2001 78.8259 70.778 78.5847 69.8937C78.2832 68.7883 75.8714 63.7637 72.0527 59.945C68.9978 56.89 60.3956 44.0338 56.7779 37.9373L53.7632 35.1235L68.9375 62.0553C69.7749 63.4287 71.8919 66.477 73.6606 67.6829Z" fill="url(#paint5_linear_12350_337)"/>
<path d="M74.4645 63.3617C75.5096 64.0853 79.2546 65.874 80.9964 66.678C80.9964 66.075 80.293 65.2711 79.4891 64.2662C78.6851 63.2612 70.3443 55.4229 63.0084 46.3786C57.1397 39.1432 55.0695 35.9274 54.7681 35.224C55.2035 36.3294 56.4764 39.2236 58.0843 41.957C60.0941 45.3737 73.1581 62.4573 74.4645 63.3617Z" fill="url(#paint6_linear_12350_337)"/>
<path d="M52.9594 58.0356C51.3515 53.8552 45.255 37.9373 42.4077 30.5009L43.8146 29.7974C45.1545 32.8122 48.8794 39.5652 49.8441 42.4594C50.8088 45.3536 57.2135 60.012 60.6972 66.9794V68.5873C60.6972 69.3108 61.3672 70.1617 61.7022 70.4966C61.3672 70.3627 60.2953 69.753 58.6874 68.3863C56.6776 66.6779 54.9692 63.2612 52.9594 58.0356Z" fill="url(#paint7_linear_12350_337)"/>
<path d="M56.7779 59.1411C54.9289 55.3626 47.9011 39.0092 44.6184 31.3048H47.6332C48.4706 33.1807 50.6881 38.3995 52.8587 44.2683C55.0294 50.137 60.0607 59.1746 62.305 62.9598C62.6735 64.6681 63.3501 68.2255 63.1089 68.7883C62.8074 69.4917 62.4055 69.5922 60.9986 67.7834C59.5917 65.9745 59.0892 63.8642 56.7779 59.1411Z" fill="url(#paint8_linear_12350_337)"/>
<path d="M52.0548 38.9422C47.8743 37.1735 45.6903 36.1284 45.1208 35.8269L38.8903 31.7068L37.7849 31.9077C39.5268 33.3146 43.1713 36.249 43.8144 36.7314C44.6184 37.3343 48.7385 38.5402 54.0646 40.8515C58.3255 42.7006 67.8655 48.0534 72.1531 50.3982C71.0477 49.4268 68.5153 46.9614 66.8271 45.6751C64.7167 44.0673 57.2803 41.153 52.0548 38.9422Z" fill="url(#paint9_linear_12350_337)"/>
<path d="M73.7611 51.7046C72.5552 50.6997 69.8419 48.5894 61.6016 44.4692C55.1426 41.2397 47.4569 37.6569 44.116 36.4299L41.7042 34.9225L39.1919 34.2191C39.8283 34.688 41.3826 35.8068 42.5081 36.5304C43.915 37.4348 56.577 43.2633 61.6016 45.5746C65.6213 47.4237 73.1247 52.0731 76.3739 54.1164C75.9049 53.681 74.7258 52.5086 73.7611 51.7046Z" fill="url(#paint10_linear_12350_337)"/>
<path d="M55.9741 37.3343C53.2407 36.2892 48.7387 35.09 46.8294 34.621L46.3269 32.2092C49.5426 33.1807 56.3761 35.3848 57.984 36.4299C59.5918 37.475 61.2667 39.7126 61.8027 40.5501C61.0657 40.0141 58.7075 38.3794 55.9741 37.3343Z" fill="url(#paint11_linear_12350_337)"/>
<path d="M57.6823 37.7363C55.8332 36.7716 49.6764 35.1905 46.8292 34.5205L46.6282 35.6259C48.4035 36.1284 52.6175 37.3745 55.2705 38.3392C57.9235 39.304 62.9414 42.4929 65.1187 43.9668C64.8507 43.7658 64.1741 43.1628 63.6113 42.3589C62.9079 41.354 59.9936 38.9422 57.6823 37.7363Z" fill="url(#paint12_linear_12350_337)"/>
<path d="M46.6283 35.6259C48.9061 36.1284 54.4265 37.6559 58.2853 39.7461C63.109 42.3589 65.4203 44.2682 66.2242 44.9717C66.6214 45.3193 67.2692 45.9403 67.8406 46.475C68.2003 46.7536 68.5038 47.0244 68.7365 47.283C68.5188 47.1037 68.1943 46.8059 67.8406 46.475C65.4044 44.5877 60.3931 42.3439 57.3809 41.153C53.0598 39.4446 46.1258 36.8318 45.6234 36.4299C45.2214 36.1083 44.9869 35.7599 44.9199 35.6259H46.6283Z" fill="url(#paint13_linear_12350_337)"/>
<path d="M56.376 35.9274C54.5269 35.1235 49.1741 33.5156 46.7288 32.8122L49.0401 28.491C50.447 29.2615 53.6426 31.1239 55.1701 32.4102C56.6976 33.6965 58.4863 36.3629 59.1898 37.5353C59.0223 37.3343 58.225 36.7314 56.376 35.9274Z" fill="url(#paint14_linear_12350_337)"/>
<path d="M44.3168 19.7482C42.0658 17.9796 39.2922 17.1354 38.1868 16.9344C40.9335 19.8822 46.9698 26.4209 49.1404 28.1895C51.311 29.9582 55.3374 32.6447 56.8783 34.3195C56.8783 33.8506 55.8532 31.9479 54.5669 30.0989C52.9591 27.7876 47.1305 21.959 44.3168 19.7482Z" fill="url(#paint15_linear_12350_337)"/>
<path d="M49.0401 29.094C47.9146 28.8528 45.1544 26.5817 43.915 25.4763H46.9298L49.3416 26.5817C49.7436 27.1176 50.5676 28.2498 50.648 28.491C50.7485 28.7925 50.447 29.3954 49.0401 29.094Z" fill="url(#paint16_linear_12350_337)"/>
<path d="M50.7483 31.7068C50.5071 30.7421 47.901 29.027 46.6281 28.2901L43.5129 27.5866L41.905 27.9886L43.2114 29.7974L46.6281 32.7117C47.2981 32.9797 48.7787 33.5558 49.3414 33.7166C50.0449 33.9176 51.0498 32.9127 50.7483 31.7068Z" fill="url(#paint17_linear_12350_337)"/>
<path d="M50.4471 30.2999C49.9647 29.3351 47.7673 28.223 46.7289 27.7876L46.3269 29.7974C47.4658 30.4674 49.824 31.8273 50.1456 31.9077C50.5476 32.0082 51.05 31.5058 50.4471 30.2999Z" fill="url(#paint18_linear_12350_337)"/>
<path d="M49.643 26.9836C49.0589 26.1659 47.1307 26.2802 44.5179 25.7777C42.4817 25.3862 40.4709 23.1827 39.6561 22.0471L38.8904 21.1551L39.8953 18.1404C40.7327 18.6428 42.7694 19.8688 44.2165 20.7531C45.6635 21.6375 49.844 25.8782 50.4469 28.1895C50.3465 27.9551 50.1455 27.6871 49.643 26.9836Z" fill="url(#paint19_linear_12350_337)"/>
<path d="M46.7288 28.089C46.4072 26.7224 44.183 25.6437 43.1111 25.2753L42.3071 28.3905C42.8431 28.7925 44.116 29.6567 44.9199 29.8979C45.9248 30.1994 47.1307 29.7974 46.7288 28.089Z" fill="url(#paint20_linear_12350_337)"/>
<path d="M33.0617 31.3048C31.5342 30.1793 30.4824 27.0841 30.1475 25.6772C30.3819 25.4763 30.9313 25.2552 31.2529 25.9787C31.5744 26.7023 34.6026 30.7018 36.0765 32.6112C35.708 32.6447 34.5892 32.4303 33.0617 31.3048Z" fill="url(#paint21_linear_12350_337)"/>
<path d="M36.4785 33.1137C35.353 32.1489 32.5258 27.8881 31.2529 25.8782L32.7603 24.9738C32.9613 25.4093 33.5531 27.0903 35.5741 29.295C37.7849 31.7068 40.5987 33.9176 41.8046 34.822C40.6322 34.5875 37.604 34.0784 36.4785 33.1137Z" fill="url(#paint22_linear_12350_337)"/>
<path d="M36.8806 30.8023C33.906 28.069 32.8274 25.5768 32.6599 24.6723V21.4566L37.2825 27.9886C37.9525 28.759 39.7747 30.4808 41.3022 31.6063C42.8297 32.7318 46.2933 34.3531 47.8342 35.023C47.7672 35.09 47.4523 35.3848 47.1307 35.626C46.7288 35.9274 45.3219 36.6309 43.8145 35.9274C42.3071 35.224 40.5988 34.2191 36.8806 30.8023Z" fill="url(#paint23_linear_12350_337)"/>
<path d="M42.0056 32.2092C39.9958 31.0033 37.8855 28.692 37.0815 27.6871L38.2874 25.4763L42.0056 28.3905C43.446 29.5629 46.4474 32.1489 46.9297 33.1136C47.4121 34.0784 47.3317 34.7215 47.2312 34.9225C46.3268 34.5205 44.0155 33.4151 42.0056 32.2092Z" fill="url(#paint24_linear_12350_337)"/>
<path d="M34.8707 27.0841C33.7641 26.0467 32.8274 22.763 32.6599 21.0546C33.4303 21.5236 35.3129 22.8032 36.6796 24.1699C38.3879 25.8782 38.6894 27.4861 38.0865 27.8881C37.4835 28.29 36.4786 28.5915 34.8707 27.0841Z" fill="url(#paint25_linear_12350_337)"/>
<path d="M41.1012 28.491C39.4129 28.2498 36.1101 24.3038 34.6697 22.361C35.7751 21.959 38.3276 21.3159 39.6943 21.959C41.4026 22.763 43.7139 25.9787 43.9149 26.8831C44.1159 27.7876 43.2115 28.7925 41.1012 28.491Z" fill="url(#paint26_linear_12350_337)"/>
<path d="M50.3463 41.4545C45.1207 39.2034 42.6754 37.0328 42.106 36.2289C45.1542 37.7698 52.0547 41.1731 55.2704 42.4594C58.4861 43.7457 70.4782 50.6327 76.0722 53.9155L80.7953 57.3322C80.6278 57.2987 79.8909 57.0508 78.283 56.3273C76.2732 55.4228 74.9668 54.2169 70.3442 51.3027C65.7215 48.3884 56.8783 44.2682 50.3463 41.4545Z" fill="url(#paint27_linear_12350_337)"/>
<path d="M36.579 22.8635C33.9261 22.7027 30.583 19.3798 29.2431 17.7384C29.0421 17.1355 29.2431 16.5325 30.2481 16.1305C31.253 15.7286 38.7899 19.6477 39.3928 20.6527C39.9958 21.6576 39.8953 23.0645 36.579 22.8635Z" fill="url(#paint28_linear_12350_337)"/>
<path d="M28.5398 23.2654C27.8967 21.5772 28.6068 18.6763 29.0423 17.4369C30.2817 18.7768 32.7672 20.9322 32.9614 21.9591C33.6649 25.6773 32.1575 25.9787 31.655 26.0792C30.6845 26.2733 29.3437 25.3758 28.5398 23.2654Z" fill="url(#paint29_linear_12350_337)"/>
<path d="M42.91 20.5522C42.4076 19.2458 38.0864 16.5325 36.1771 16.1305C34.6665 15.8125 31.6556 15.9924 30.2932 16.1261L38.9908 20.2507C39.8953 20.8202 41.8046 21.9792 42.2066 22.0596C42.709 22.16 43.4125 21.8586 42.91 20.5522Z" fill="url(#paint30_linear_12350_337)"/>
<path d="M0.803955 7.09886C1.00494 6.5629 1.86917 5.18951 3.71822 3.98361C5.25565 2.98094 9.58593 2.69617 12.5615 2.66717L15.2748 5.18951C15.4088 5.2565 15.9179 5.41059 16.8827 5.49099C17.8474 5.57138 18.6915 6.12743 18.993 6.39541C18.6915 6.36192 17.8474 6.31502 16.8827 6.39541C15.9179 6.47581 13.5999 7.36683 12.5615 7.8023C11.8246 7.63481 9.74773 7.15915 7.33593 6.5964C4.92412 6.03364 1.97636 6.69689 0.803955 7.09886Z" fill="#E6E3DF"/>
<path d="M1.10541 21.0546L5.02459 15.2261L9.8482 21.758L5.92902 28.692H4.42164L0 21.758L1.10541 21.0546Z" fill="#826B0D"/>
<path d="M5.12505 19.1453L5.02456 15.2261L2.31128 19.2457L4.42161 19.6477L5.12505 19.1453Z" fill="url(#paint31_linear_12350_337)"/>
<path d="M6.83332 22.2605L4.82349 19.2458L5.12496 19.0448V18.3413L6.23037 18.5423L9.14464 21.5571L6.53185 25.1748L5.72791 24.3709L6.83332 22.2605Z" fill="#BEA43C"/>
<path d="M9.1449 21.5571L6.7331 22.2605L5.62769 24.3708L6.53211 25.1748L9.1449 21.5571Z" fill="url(#paint32_linear_12350_337)"/>
<path d="M3.01472 22.361L1.00488 21.0546L2.31128 19.2458L4.5221 19.5472L3.01472 22.361Z" fill="#C1AE5D"/>
<path d="M3.91919 27.8881L4.92411 25.4763L5.62755 24.3708L6.53198 25.1748L9.14477 21.5571L9.84821 21.7581L5.92903 28.692H4.42165L3.91919 27.8881Z" fill="url(#paint33_linear_12350_337)"/>
<path d="M3.01489 22.361L4.42178 19.5472L4.82375 19.1453L6.93408 22.2605L4.92424 25.4763L3.31637 23.1649L3.01489 22.361Z" fill="#E6DCB4"/>
<path d="M5.72808 14.5141C5.08493 15.2377 4.45518 15.2846 4.2207 15.2176C4.2207 15.0501 4.2408 14.5141 4.3212 13.7102C4.42169 12.7053 4.72316 11.2984 5.12513 10.9969C5.5271 10.6954 5.92907 11.1979 6.13005 11.5999C6.33103 12.0018 6.53202 13.6097 5.72808 14.5141Z" fill="#8E8B89" stroke="#8E8B89"/>
<path d="M5.22559 10.503C5.22559 10.7441 5.29258 11.1394 5.32608 11.3069H5.82854C5.79504 11.2399 5.70795 11.0456 5.62755 10.8044C5.54716 10.5633 5.66105 10.235 5.72805 10.101H5.32608C5.29258 10.1345 5.22559 10.2618 5.22559 10.503Z" fill="#8E8B89"/>
<path d="M4.72305 10.503L6.02944 10.302C6.09644 8.9621 6.15004 6.28232 5.82846 6.28232H4.62256L4.72305 10.503Z" fill="#8E8B89" stroke="#8E8B89"/>
<defs>
<linearGradient id="paint0_linear_12350_337" x1="32.9023" y1="1.80654" x2="59.9019" y2="49.0942" gradientUnits="userSpaceOnUse">
<stop stop-color="#E6E3DF"/>
<stop offset="1" stop-color="#172391"/>
</linearGradient>
<linearGradient id="paint1_linear_12350_337" x1="26.6304" y1="10.302" x2="78.2833" y2="56.2268" gradientUnits="userSpaceOnUse">
<stop stop-color="#E6E3DF"/>
<stop offset="1" stop-color="#2435CD"/>
</linearGradient>
<linearGradient id="paint2_linear_12350_337" x1="57.7808" y1="31.3048" x2="57.7808" y2="69.9549" gradientUnits="userSpaceOnUse">
<stop stop-color="#8F98EA"/>
<stop offset="1" stop-color="#050B42"/>
</linearGradient>
<linearGradient id="paint3_linear_12350_337" x1="60.6469" y1="32.6112" x2="60.6469" y2="71.5074" gradientUnits="userSpaceOnUse">
<stop stop-color="#8F98EA"/>
<stop offset="1" stop-color="#050B42"/>
</linearGradient>
<linearGradient id="paint4_linear_12350_337" x1="62.8585" y1="33.3146" x2="62.8585" y2="71.602" gradientUnits="userSpaceOnUse">
<stop stop-color="#8F98EA"/>
<stop offset="1" stop-color="#050B42"/>
</linearGradient>
<linearGradient id="paint5_linear_12350_337" x1="66.2405" y1="35.1235" x2="66.2405" y2="71.3006" gradientUnits="userSpaceOnUse">
<stop stop-color="#8F98EA"/>
<stop offset="1" stop-color="#050B42"/>
</linearGradient>
<linearGradient id="paint6_linear_12350_337" x1="67.8823" y1="35.224" x2="67.8823" y2="66.678" gradientUnits="userSpaceOnUse">
<stop stop-color="#8F98EA"/>
<stop offset="1" stop-color="#050B42"/>
</linearGradient>
<linearGradient id="paint7_linear_12350_337" x1="52.0549" y1="29.7974" x2="52.0549" y2="70.4966" gradientUnits="userSpaceOnUse">
<stop stop-color="#8F98EA"/>
<stop offset="1" stop-color="#050B42"/>
</linearGradient>
<linearGradient id="paint8_linear_12350_337" x1="53.889" y1="31.3048" x2="53.889" y2="69.2595" gradientUnits="userSpaceOnUse">
<stop stop-color="#8F98EA"/>
<stop offset="1" stop-color="#050B42"/>
</linearGradient>
<linearGradient id="paint9_linear_12350_337" x1="43.4125" y1="35.5254" x2="72.1531" y2="49.9963" gradientUnits="userSpaceOnUse">
<stop stop-color="#E6E3DF"/>
<stop offset="1" stop-color="#172391"/>
</linearGradient>
<linearGradient id="paint10_linear_12350_337" x1="43.8145" y1="35.9274" x2="76.0724" y2="53.815" gradientUnits="userSpaceOnUse">
<stop stop-color="#E6E3DF"/>
<stop offset="1" stop-color="#172391"/>
</linearGradient>
<linearGradient id="paint11_linear_12350_337" x1="43.5131" y1="32.4102" x2="61.0992" y2="39.8466" gradientUnits="userSpaceOnUse">
<stop stop-color="#E6E3DF"/>
<stop offset="1" stop-color="#172391"/>
</linearGradient>
<linearGradient id="paint12_linear_12350_337" x1="43.0105" y1="32.8122" x2="64.4152" y2="43.4643" gradientUnits="userSpaceOnUse">
<stop stop-color="#E6E3DF"/>
<stop offset="0.945038" stop-color="#172391"/>
</linearGradient>
<linearGradient id="paint13_linear_12350_337" x1="36.8806" y1="31.0033" x2="66.4252" y2="45.6751" gradientUnits="userSpaceOnUse">
<stop stop-color="#E6E3DF"/>
<stop offset="1" stop-color="#172391"/>
</linearGradient>
<linearGradient id="paint14_linear_12350_337" x1="48.5376" y1="31.0033" x2="58.9888" y2="37.3343" gradientUnits="userSpaceOnUse">
<stop stop-color="#E6E3DF"/>
<stop offset="1" stop-color="#172391"/>
</linearGradient>
<linearGradient id="paint15_linear_12350_337" x1="47.3315" y1="16.9344" x2="47.3315" y2="35.425" gradientUnits="userSpaceOnUse">
<stop stop-color="#BBBFE3"/>
<stop offset="1" stop-color="#172391"/>
</linearGradient>
<linearGradient id="paint16_linear_12350_337" x1="47.2903" y1="25.4763" x2="47.2903" y2="29.1761" gradientUnits="userSpaceOnUse">
<stop stop-color="#E6E3DF"/>
<stop offset="1" stop-color="#172391"/>
</linearGradient>
<linearGradient id="paint17_linear_12350_337" x1="42.307" y1="28.692" x2="51.4518" y2="33.8171" gradientUnits="userSpaceOnUse">
<stop stop-color="#E6E3DF"/>
<stop offset="1" stop-color="#172391"/>
</linearGradient>
<linearGradient id="paint18_linear_12350_337" x1="48.5266" y1="27.7876" x2="50.3466" y2="32.0082" gradientUnits="userSpaceOnUse">
<stop stop-color="#E6E3DF"/>
<stop offset="1" stop-color="#172391"/>
</linearGradient>
<linearGradient id="paint19_linear_12350_337" x1="37.383" y1="18.3413" x2="51.0499" y2="28.1895" gradientUnits="userSpaceOnUse">
<stop stop-color="#E6E3DF"/>
<stop offset="0.807618" stop-color="#8085B9"/>
<stop offset="1" stop-color="#172391"/>
</linearGradient>
<linearGradient id="paint20_linear_12350_337" x1="41.8047" y1="26.5817" x2="49.7435" y2="32.7117" gradientUnits="userSpaceOnUse">
<stop stop-color="#E6E3DF"/>
<stop offset="1" stop-color="#172391"/>
</linearGradient>
<linearGradient id="paint21_linear_12350_337" x1="33.112" y1="25.4806" x2="33.112" y2="32.6144" gradientUnits="userSpaceOnUse">
<stop stop-color="#E6E3DF"/>
<stop offset="1" stop-color="#172391"/>
</linearGradient>
<linearGradient id="paint22_linear_12350_337" x1="36.4283" y1="24.9738" x2="36.4283" y2="34.9225" gradientUnits="userSpaceOnUse">
<stop stop-color="#E6E3DF"/>
<stop offset="1" stop-color="#172391"/>
</linearGradient>
<linearGradient id="paint23_linear_12350_337" x1="40.1968" y1="21.4566" x2="40.1968" y2="36.2299" gradientUnits="userSpaceOnUse">
<stop stop-color="#E6E3DF"/>
<stop offset="1" stop-color="#172391"/>
</linearGradient>
<linearGradient id="paint24_linear_12350_337" x1="42.1945" y1="25.4763" x2="42.1945" y2="34.9225" gradientUnits="userSpaceOnUse">
<stop stop-color="#E6E3DF"/>
<stop offset="1" stop-color="#172391"/>
</linearGradient>
<linearGradient id="paint25_linear_12350_337" x1="35.5157" y1="21.0546" x2="42.5081" y2="32.1087" gradientUnits="userSpaceOnUse">
<stop stop-color="#E6E3DF"/>
<stop offset="1" stop-color="#172391"/>
</linearGradient>
<linearGradient id="paint26_linear_12350_337" x1="34.7702" y1="21.0546" x2="43.312" y2="28.1895" gradientUnits="userSpaceOnUse">
<stop stop-color="#E6E3DF"/>
<stop offset="1" stop-color="#172391"/>
</linearGradient>
<linearGradient id="paint27_linear_12350_337" x1="34.4686" y1="32.3097" x2="79.1875" y2="56.5282" gradientUnits="userSpaceOnUse">
<stop stop-color="#E6E3DF"/>
<stop offset="1" stop-color="#172391"/>
</linearGradient>
<linearGradient id="paint28_linear_12350_337" x1="34.4259" y1="16.1017" x2="34.4259" y2="22.8829" gradientUnits="userSpaceOnUse">
<stop stop-color="#E6E3DF"/>
<stop offset="1" stop-color="#172391"/>
</linearGradient>
<linearGradient id="paint29_linear_12350_337" x1="30.7136" y1="17.4369" x2="30.7136" y2="26.105" gradientUnits="userSpaceOnUse">
<stop stop-color="#E6E3DF"/>
<stop offset="1" stop-color="#172391"/>
</linearGradient>
<linearGradient id="paint30_linear_12350_337" x1="36.6655" y1="15.953" x2="36.6655" y2="22.0774" gradientUnits="userSpaceOnUse">
<stop stop-color="#E6E3DF"/>
<stop offset="1" stop-color="#172391"/>
</linearGradient>
<linearGradient id="paint31_linear_12350_337" x1="3.61767" y1="15.2261" x2="5.22554" y2="20.4517" gradientUnits="userSpaceOnUse">
<stop stop-color="#A09258"/>
<stop offset="1" stop-color="#826B0D"/>
</linearGradient>
<linearGradient id="paint32_linear_12350_337" x1="7.38629" y1="21.5571" x2="7.38629" y2="25.1748" gradientUnits="userSpaceOnUse">
<stop stop-color="#B79A22"/>
<stop offset="1" stop-color="#826B0D"/>
</linearGradient>
<linearGradient id="paint33_linear_12350_337" x1="4.44719" y1="21.5571" x2="9.34575" y2="24.4713" gradientUnits="userSpaceOnUse">
<stop stop-color="#F3EAC7"/>
<stop offset="1" stop-color="#927B1F"/>
</linearGradient>
</defs>
</svg>
