<svg width="1193" height="377" viewBox="0 0 1193 377" fill="none" xmlns="http://www.w3.org/2000/svg">
<rect width="1192" height="376" fill="#EDE8E1"/>
<path d="M927.5 376C931 358 944.6 323.7 971 330.5C1004 339 1023.5 344 1034 341C1044.5 338 1113 337 1073.5 276.5C1034 216 1026.5 208 1060 190C1093.5 172 1133 174.5 1140 181C1145.6 186.2 1177 183.167 1192 181" stroke="#2435CD"/>
<path d="M1.5 177C15.5 187.333 50.9 204.9 80.5 192.5C117.5 177 162.5 154.5 159.5 135.5C156.5 116.5 120 64.0001 157 57.5001C194 51.0001 212.5 70.5001 227.5 78.0001C242.5 85.5001 299 90.5 272.5 46.5C251.3 11.3 240.667 1.16667 238 0.5" stroke="#2435CD"/>
<path d="M1 142C19 144.833 53.6 156.7 48 181.5C41 212.5 43.5 237.5 34 248C24.5 258.5 12 278 34 281C56 284 88.5 268.5 104 300C116.4 325.2 105.167 360.833 98 375.5" stroke="#2435CD"/>
<path d="M886.5 375C882.333 367 879.9 349.9 903.5 345.5C933 340 941 348 950 355.5C957.2 361.5 972 371 978.5 375" stroke="#2435CD"/>
</svg>
